<svg width="82" height="82" viewBox="0 0 82 82" fill="none" xmlns="http://www.w3.org/2000/svg">
<g clip-path="url(#clip0_9_734)">
<path d="M41 82C63.6437 82 82 63.6437 82 41C82 18.3563 63.6437 0 41 0C18.3563 0 0 18.3563 0 41C0 63.6437 18.3563 82 41 82Z" fill="#B298EF"/>
<path d="M23.2847 34.7902L32.4584 13.6667L39.2917 11.9583L46.1251 17.0833L48.7815 28.8111L46.9792 32.894C46.9792 32.894 38.2155 32.4583 36.4047 36.08C35.2811 38.4771 34.6397 41.0717 34.5169 43.7163L37.3357 46.4496L43.2636 43.7163L46.7486 35.9177L51.2928 33.5175L57.9211 39.4967L60.7826 56.7252L49.9432 66.4029L37.1307 67.2571C37.1307 67.2571 25.6251 60.6458 24.1388 47.1842C22.6526 33.7225 23.2847 34.7902 23.2847 34.7902Z" fill="white"/>
<path d="M33.4151 39.4967L43.3662 33.5175L48.2349 37.8396L38.4376 51.25C38.4376 51.25 31.2797 47.1842 33.4151 39.4967Z" fill="#B298EF"/>
<path d="M34.0726 65.9758C18.6634 56.6398 20.8501 17.9375 33.3124 12.8125C40.7607 9.74603 47.9785 14.2475 47.8332 24.7708C47.671 36.4814 43.5624 52.9583 36.7291 51.25C34.8926 50.7887 31.1257 43.1354 35.0207 39.2917C39.5905 34.7902 53.0693 31.2027 57.9209 39.4967C62.6616 47.6027 61.4572 58.6129 54.7691 63.8404C49.6099 67.8806 39.4453 69.2387 34.0726 65.9758Z" stroke="black" stroke-width="6" stroke-miterlimit="10"/>
</g>
<defs>
<clipPath id="clip0_9_734">
<rect width="82" height="82" fill="white"/>
</clipPath>
</defs>
</svg>
