<svg width="135" height="36" viewBox="0 0 135 36" fill="none" xmlns="http://www.w3.org/2000/svg">
<rect x="1" y="4" width="28" height="28" fill="white" stroke="black" stroke-width="2"/>
<path d="M46.8594 26.3633H51.0342C52.5088 26.3633 53.6807 25.8994 54.5498 24.9717C55.1846 24.2979 55.502 23.4092 55.502 22.3057C55.502 21.1631 55.165 20.2012 54.4912 19.4199C53.7588 18.5215 52.6064 18.0723 51.0342 18.0723H46.8594V26.3633ZM46.8594 15.4355H51.0342C52.0107 15.4355 52.7969 15.1182 53.3926 14.4834C53.9199 13.917 54.1836 13.1797 54.1836 12.2715C54.1836 11.5293 53.8662 10.8604 53.2314 10.2646C52.665 9.7666 51.9326 9.51758 51.0342 9.51758H46.8594V15.4355ZM43.9297 29V7.61328L45.4824 6.88086H51.0342C52.6846 6.88086 54.0566 7.33008 55.1504 8.22852C56.4492 9.2832 57.0986 10.6357 57.0986 12.2861C57.0986 13.9658 56.3564 15.3623 54.8721 16.4756C55.3506 16.6807 55.8242 16.9883 56.293 17.3984C57.7188 18.6973 58.4316 20.3086 58.4316 22.2324C58.4316 24.166 57.8066 25.7529 56.5566 26.9932C55.2188 28.3311 53.3779 29 51.0342 29H43.9297ZM64.2178 9.64941C63.876 9.29785 63.7051 8.87793 63.7051 8.38965C63.7051 7.8916 63.876 7.4668 64.2178 7.11523C64.5596 6.76367 64.9746 6.58789 65.4629 6.58789C65.9512 6.58789 66.3662 6.76367 66.708 7.11523C67.0498 7.4668 67.2207 7.8916 67.2207 8.38965C67.2207 8.87793 67.0498 9.29785 66.708 9.64941C66.3662 10.001 65.9512 10.1768 65.4629 10.1768C64.9746 10.1768 64.5596 10.001 64.2178 9.64941ZM63.998 29.5859V13.6191L66.7812 12.3008H66.9277V28.2676L64.1445 29.5859H63.998ZM83.1875 28.2676L80.4043 29.5859H80.2578V28.0479C79.4766 28.8779 78.4268 29.293 77.1084 29.293C75.2822 29.293 73.8613 28.7412 72.8457 27.6377C71.8301 26.5342 71.3223 25.2305 71.3223 23.7266C71.3223 22.1641 71.874 20.8359 72.9775 19.7422C74.042 18.6875 75.4189 18.1602 77.1084 18.1602C78.3096 18.1602 79.3594 18.5752 80.2578 19.4053C80.2578 17.6768 79.9551 16.5391 79.3496 15.9922C78.7637 15.4648 78.0166 15.2012 77.1084 15.2012H73.5488V15.0547L74.7207 12.5938H77.1084C78.8174 12.5938 80.2383 13.1455 81.3711 14.249C82.582 15.4307 83.1875 16.832 83.1875 18.4531V28.2676ZM74.1934 23.7266C74.1934 24.5957 74.457 25.3135 74.9844 25.8799C75.4922 26.4268 76.2051 26.7002 77.123 26.7002C78.0801 26.7002 78.8223 26.4219 79.3496 25.8652C79.9355 25.2402 80.2285 24.5371 80.2285 23.7559C80.2285 22.877 79.9258 22.1641 79.3203 21.6172C78.7148 21.0703 77.9873 20.7969 77.1377 20.7969C76.249 20.7969 75.5361 21.085 74.999 21.6611C74.4619 22.2373 74.1934 22.9258 74.1934 23.7266ZM87.582 29.5859V18.4531C87.582 16.8418 88.1875 15.4404 89.3984 14.249C90.5312 13.1455 91.9521 12.5938 93.6611 12.5938C95.3506 12.5938 96.7715 13.1455 97.9238 14.249C99.1348 15.4209 99.7402 16.8223 99.7402 18.4531V28.2676L96.957 29.5859H96.8105V18.4531C96.8105 17.3301 96.5029 16.5098 95.8877 15.9922C95.2822 15.4648 94.54 15.2012 93.6611 15.2012C92.7822 15.2012 92.0352 15.4648 91.4199 15.9922C90.8145 16.5098 90.5117 17.3301 90.5117 18.4531V28.2676L87.7285 29.5859H87.582ZM116.293 22.5107V23.4336C116.293 25.0449 115.688 26.4463 114.477 27.6377C113.344 28.7412 111.923 29.293 110.214 29.293C108.524 29.293 107.104 28.7412 105.951 27.6377C104.74 26.4658 104.135 25.0645 104.135 23.4336V18.4531C104.135 16.832 104.74 15.4307 105.951 14.249C107.084 13.1455 108.505 12.5938 110.214 12.5938C111.884 12.5938 113.305 13.1455 114.477 14.249C115.688 15.3916 116.293 16.6514 116.293 18.0283V18.0576L113.51 19.376H113.363V18.4531C113.363 17.3301 113.056 16.5098 112.44 15.9922C111.835 15.4648 111.093 15.2012 110.214 15.2012C109.335 15.2012 108.588 15.4648 107.973 15.9922C107.367 16.5098 107.064 17.3301 107.064 18.4531V23.4336C107.064 24.5566 107.367 25.3818 107.973 25.9092C108.588 26.4268 109.335 26.6855 110.214 26.6855C111.093 26.6855 111.835 26.4219 112.44 25.8945C113.056 25.3672 113.363 24.6787 113.363 23.8291L116.146 22.5107H116.293ZM131.82 28.2676L129.037 29.5859H128.891V28.0479C128.109 28.8779 127.06 29.293 125.741 29.293C123.915 29.293 122.494 28.7412 121.479 27.6377C120.463 26.5342 119.955 25.2305 119.955 23.7266C119.955 22.1641 120.507 20.8359 121.61 19.7422C122.675 18.6875 124.052 18.1602 125.741 18.1602C126.942 18.1602 127.992 18.5752 128.891 19.4053C128.891 17.6768 128.588 16.5391 127.982 15.9922C127.396 15.4648 126.649 15.2012 125.741 15.2012H122.182V15.0547L123.354 12.5938H125.741C127.45 12.5938 128.871 13.1455 130.004 14.249C131.215 15.4307 131.82 16.832 131.82 18.4531V28.2676ZM122.826 23.7266C122.826 24.5957 123.09 25.3135 123.617 25.8799C124.125 26.4268 124.838 26.7002 125.756 26.7002C126.713 26.7002 127.455 26.4219 127.982 25.8652C128.568 25.2402 128.861 24.5371 128.861 23.7559C128.861 22.877 128.559 22.1641 127.953 21.6172C127.348 21.0703 126.62 20.7969 125.771 20.7969C124.882 20.7969 124.169 21.085 123.632 21.6611C123.095 22.2373 122.826 22.9258 122.826 23.7266Z" fill="black"/>
</svg>
