<svg width="373" height="300" viewBox="0 0 373 300" fill="none" xmlns="http://www.w3.org/2000/svg">
<g filter="url(#filter0_d_34_28)">
<path d="M16 62C16 34.3858 38.3858 12 66 12H356V234C356 261.614 333.614 284 306 284H16V62Z" fill="#F8EF43"/>
</g>
<path d="M3.60002 86.3C3.14654 85.5631 3.19314 84.6513 3.20003 83.8111C3.24045 78.8794 3.6335 73.9383 3.82224 69.0111C4.28614 56.9008 4.43986 44.2179 9.2889 32.8778C14.6204 20.4094 23.444 10.3861 36.3111 5.81113C45.3519 2.59664 53.7855 2.84319 63.2 3.50002" stroke="black" stroke-width="5" stroke-linecap="round"/>
<path d="M321.377 293.511C325.968 293.051 330.637 292.137 335.143 291.096C340.397 289.883 345.819 288.273 350.634 285.794C357.213 282.407 362.722 275.349 366.053 268.881C368.383 264.355 369.232 258.911 369.746 253.907C370.379 247.738 370.571 241.551 370.378 235.356C369.897 219.908 369.528 204.458 368.97 189.013" stroke="black" stroke-width="5" stroke-linecap="round"/>
<defs>
<filter id="filter0_d_34_28" x="7" y="4" width="364" height="296" filterUnits="userSpaceOnUse" color-interpolation-filters="sRGB">
<feFlood flood-opacity="0" result="BackgroundImageFix"/>
<feColorMatrix in="SourceAlpha" type="matrix" values="0 0 0 0 0 0 0 0 0 0 0 0 0 0 0 0 0 0 127 0" result="hardAlpha"/>
<feOffset dx="3" dy="4"/>
<feGaussianBlur stdDeviation="6"/>
<feComposite in2="hardAlpha" operator="out"/>
<feColorMatrix type="matrix" values="0 0 0 0 0 0 0 0 0 0 0 0 0 0 0 0 0 0 0.25 0"/>
<feBlend mode="normal" in2="BackgroundImageFix" result="effect1_dropShadow_34_28"/>
<feBlend mode="normal" in="SourceGraphic" in2="effect1_dropShadow_34_28" result="shape"/>
</filter>
</defs>
</svg>
