<svg width="372" height="299" viewBox="0 0 372 299" fill="none" xmlns="http://www.w3.org/2000/svg">
<g filter="url(#filter0_d_34_28)">
<path d="M15 61C15 33.3858 37.3858 11 65 11H355V233C355 260.614 332.614 283 305 283H15V61Z" fill="#F8EF43"/>
</g>
<path d="M2.60002 85.3C2.14654 84.5631 2.19314 83.6513 2.20003 82.8111C2.24045 77.8794 2.6335 72.9383 2.82224 68.0111C3.28614 55.9008 3.43986 43.2179 8.2889 31.8778C13.6204 19.4094 22.444 9.38612 35.3111 4.81113C44.3519 1.59664 52.7855 1.84319 62.2 2.50002" stroke="black" stroke-width="4" stroke-linecap="round"/>
<path d="M320.377 292.511C324.968 292.051 329.637 291.137 334.143 290.096C339.397 288.883 344.819 287.273 349.634 284.794C356.213 281.407 361.722 274.349 365.053 267.881C367.383 263.355 368.232 257.911 368.746 252.907C369.379 246.738 369.571 240.551 369.378 234.356C368.897 218.908 368.528 203.458 367.97 188.013" stroke="black" stroke-width="4" stroke-linecap="round"/>
<defs>
<filter id="filter0_d_34_28" x="6" y="3" width="364" height="296" filterUnits="userSpaceOnUse" color-interpolation-filters="sRGB">
<feFlood flood-opacity="0" result="BackgroundImageFix"/>
<feColorMatrix in="SourceAlpha" type="matrix" values="0 0 0 0 0 0 0 0 0 0 0 0 0 0 0 0 0 0 127 0" result="hardAlpha"/>
<feOffset dx="3" dy="4"/>
<feGaussianBlur stdDeviation="6"/>
<feComposite in2="hardAlpha" operator="out"/>
<feColorMatrix type="matrix" values="0 0 0 0 0 0 0 0 0 0 0 0 0 0 0 0 0 0 0.25 0"/>
<feBlend mode="normal" in2="BackgroundImageFix" result="effect1_dropShadow_34_28"/>
<feBlend mode="normal" in="SourceGraphic" in2="effect1_dropShadow_34_28" result="shape"/>
</filter>
</defs>
</svg>
